<?xml version="1.0" encoding="UTF-8" standalone="no"?>
<!-- Created with Inkscape (http://www.inkscape.org/) -->

<svg
   xmlns:dc="http://purl.org/dc/elements/1.1/"
   xmlns:cc="http://creativecommons.org/ns#"
   xmlns:rdf="http://www.w3.org/1999/02/22-rdf-syntax-ns#"
   xmlns:svg="http://www.w3.org/2000/svg"
   xmlns="http://www.w3.org/2000/svg"
   xmlns:xlink="http://www.w3.org/1999/xlink"
   xmlns:sodipodi="http://sodipodi.sourceforge.net/DTD/sodipodi-0.dtd"
   xmlns:inkscape="http://www.inkscape.org/namespaces/inkscape"
   width="1024"
   height="256"
   viewBox="0 0 1024 256"
   id="svg2"
   version="1.1"
   inkscape:version="0.91 r13725"
   sodipodi:docname="pulsar_colored_text_only.svg"
   inkscape:export-filename="./pulsar_colored_text_only.png"
   inkscape:export-xdpi="90"
   inkscape:export-ydpi="90">
  <title
     id="title3365">Pulsar colored Text only</title>
  <defs
     id="defs4">
    <linearGradient
       inkscape:collect="always"
       id="Pulsar_Text">
      <stop
         style="stop-color:#171717;stop-opacity:1"
         offset="0"
         id="stop4163" />
      <stop
         style="stop-color:#4e4e4e;stop-opacity:1"
         offset="1"
         id="stop4165" />
    </linearGradient>
    <linearGradient
       inkscape:collect="always"
       xlink:href="#Pulsar_Text"
       id="linearGradient4171"
       x1="336.09641"
       y1="3297.8818"
       x2="336.09641"
       y2="3163.5315"
       gradientUnits="userSpaceOnUse" />
    <linearGradient
       inkscape:collect="always"
       xlink:href="#Pulsar_Text"
       id="linearGradient4179"
       x1="336.09641"
       y1="3163.5315"
       x2="336.09641"
       y2="3297.8818"
       gradientUnits="userSpaceOnUse" />
  </defs>
  <sodipodi:namedview
     id="base"
     pagecolor="#ffffff"
     bordercolor="#666666"
     borderopacity="1.0"
     inkscape:pageopacity="0"
     inkscape:pageshadow="2"
     inkscape:zoom="1"
     inkscape:cx="470.22137"
     inkscape:cy="137.42349"
     inkscape:document-units="px"
     inkscape:current-layer="layer1"
     showgrid="false"
     fit-margin-top="0"
     fit-margin-left="0"
     fit-margin-right="0"
     fit-margin-bottom="0"
     inkscape:showpageshadow="false"
     inkscape:window-width="1920"
     inkscape:window-height="1016"
     inkscape:window-x="0"
     inkscape:window-y="27"
     inkscape:window-maximized="1"
     units="px"
     inkscape:snap-global="false" />
  <metadata
     id="metadata7">
    <rdf:RDF>
      <cc:Work
         rdf:about="">
        <dc:format>image/svg+xml</dc:format>
        <dc:type
           rdf:resource="http://purl.org/dc/dcmitype/StillImage" />
        <dc:title>Pulsar colored Text only</dc:title>
        <cc:license
           rdf:resource="http://creativecommons.org/licenses/by-nc/3.0/" />
        <dc:creator>
          <cc:Agent>
            <dc:title>Ralf Hölzemer</dc:title>
          </cc:Agent>
        </dc:creator>
      </cc:Work>
      <cc:License
         rdf:about="http://creativecommons.org/licenses/by-nc/3.0/">
        <cc:permits
           rdf:resource="http://creativecommons.org/ns#Reproduction" />
        <cc:permits
           rdf:resource="http://creativecommons.org/ns#Distribution" />
        <cc:requires
           rdf:resource="http://creativecommons.org/ns#Notice" />
        <cc:requires
           rdf:resource="http://creativecommons.org/ns#Attribution" />
        <cc:prohibits
           rdf:resource="http://creativecommons.org/ns#CommercialUse" />
        <cc:permits
           rdf:resource="http://creativecommons.org/ns#DerivativeWorks" />
      </cc:License>
    </rdf:RDF>
  </metadata>
  <g
     inkscape:label="Ebene 1"
     inkscape:groupmode="layer"
     id="layer1"
     transform="translate(176.70259,-3101.9995)">
    <g
       id="pulsar_colored_text_only"
       style="fill:#333333;stroke-width:3;stroke-miterlimit:4;stroke-dasharray:none">
      <rect
         style="fill:#333333;fill-opacity:0;stroke-width:3;stroke-miterlimit:4;stroke-dasharray:none"
         id="placeholder"
         width="1024"
         height="256"
         x="-176.70259"
         y="3101.9995" />
      <path
         style="fill:url(#linearGradient4171);fill-opacity:1;stroke:url(#linearGradient4179);stroke-width:3;stroke-miterlimit:4;stroke-dasharray:none"
         d="m -151.80726,3257.1945 0,-94.6834 81.325968,0 81.32597,0 0.01104,67.5939 0.01104,67.5954 -67.848688,0 -67.84868,0 0,27.1002 0,27.1003 -13.48827,-0.012 -13.48809,-0.012 0,-94.6814 z m 131.586715,13.5349 4.215195,0 0,-40.7716 0,-40.7717 -54.412865,0 -54.412685,0 0,40.7682 0,40.7664 10.3461,0 c 5.69042,0 28.279365,0 50.197664,0.012 21.918304,0 41.748323,0 44.066591,0 z m 57.861388,-40.6244 0,-67.5939 13.488268,0 13.488269,0 0,54.1065 0,54.1066 3.90849,0.012 c 4.349323,0.012 83.83454,0 96.71666,0 l 8.20023,0 0,-54.1065 0,-54.1065 13.4422,0 13.44239,0 -0.004,67.5955 -0.004,67.5937 -81.34156,0 -81.341568,0 0,-67.5937 z m 189.448287,-27.2048 0,-94.8021 12.95176,0 c 7.1233,0 13.19308,0 13.48809,0 0.51029,0 0.53687,4.7751 0.53687,94.7684 l 0,94.724 -13.48828,0 -13.48808,0 0,-94.8002 z m 53.70006,81.3148 -0.0178,-13.4856 57.69306,0 c 31.73125,0 62.28141,0 67.88909,0 l 10.19602,-0.012 -0.0885,-13.5634 -0.0885,-13.5652 -67.41989,0 c -37.08096,0 -67.58292,-0.1772 -67.78226,-0.2127 -0.2764,-0.1771 -0.36677,-9.7521 -0.38448,-40.4775 l -0.0178,-40.3358 81.36921,0 81.36921,0 0,13.3348 0,13.3349 -67.90397,0 -67.90414,0 0.0887,13.7176 0.0885,13.7193 67.82423,0 67.82424,0 0,40.5413 0,40.5396 -81.35024,0 -81.35025,0 -0.0178,-13.4838 z m 189.47946,-26.9798 c -0.002,-37.0578 0.0354,-40.467 0.49258,-40.4829 0.64139,0 161.66732,0 161.97101,0 0.12403,0.012 0.23034,18.2269 0.23034,40.4829 l 0,40.4652 -81.34492,0 -81.34476,0 -0.004,-40.4652 z m 132.11473,13.4978 3.60196,-0.012 0,-13.6342 0,-13.6343 -54.4127,0.012 -54.41268,0.012 0,13.6184 0,13.6166 6.05435,0 c 4.60501,0 66.1658,0 99.16906,0 z m 57.37591,-40.5501 0.0178,-67.5176 81.31251,0 81.31249,0 0,13.3366 0,13.3349 -67.90095,0 -67.90095,0 0,54.2606 0,54.2589 -13.43723,0 -13.43742,0 0.0178,-67.5176 z m -189.52855,-54.3369 0,-13.3349 81.36512,0 81.36531,0 0,13.3349 0,13.3348 -81.36603,0 -81.36582,0 0,-13.3348 z"
         id="pulsar_colored_text"
         inkscape:connector-curvature="0" />
    </g>
  </g>
</svg>
