<?xml version="1.0" encoding="UTF-8" standalone="no"?>
<svg width="610px" height="610px" viewBox="0 0 610 610" version="1.1" xmlns="http://www.w3.org/2000/svg" xmlns:xlink="http://www.w3.org/1999/xlink" xmlns:sketch="http://www.bohemiancoding.com/sketch/ns">
    <title>pulsar-logo</title>
    <description>Created with Sketch (http://www.bohemiancoding.com/sketch)</description>
    <defs>
        <filter x="-50%" y="-50%" width="200%" height="200%" filterUnits="objectBoundingBox" id="filter-1">
            <feGaussianBlur stdDeviation="3" in="SourceGraphic" result="blur"></feGaussianBlur>
        </filter>
        <filter x="-50%" y="-50%" width="200%" height="200%" filterUnits="objectBoundingBox" id="filter-2">
            <feGaussianBlur stdDeviation="3" in="SourceGraphic" result="blur"></feGaussianBlur>
        </filter>
    </defs>
    <g id="Page-1" stroke="none" stroke-width="1" fill="none" fill-rule="evenodd" sketch:type="MSPage">
        <g id="pulsar" sketch:type="MSLayerGroup" transform="translate(305.000000, 305.000000) rotate(-30.000000) translate(-305.000000, -305.000000) translate(5.000000, 5.000000)">
            <path d="M446.559338,285.090778 C455.202601,278.942242 460,272.146198 460,265 C460,237.385761 388.365564,215 300,215 C211.634436,215 140,237.385761 140,265 C140,272.146198 144.797399,278.942242 153.440662,285.090778 C179.915331,268.457811 235.595595,257 300,257 C364.404405,257 420.084669,268.457811 446.559338,285.090778 Z" id="core-back" stroke="#494949" stroke-width="2" fill="#6A6A6A" sketch:type="MSShapeGroup"></path>
            <g id="ring-+-flame" fill="#F8E71C" sketch:type="MSShapeGroup">
                <g id="ring">
                    <path d="M300,600 C465.685433,600 600,465.685433 600,300 C600,134.314567 465.685433,0 300,0 C134.314567,0 0,134.314567 0,300 C0,465.685433 134.314567,600 300,600 Z M300,590 C460.162585,590 590,460.162585 590,300 C590,139.837415 460.162585,10 300,10 C139.837415,10 10,139.837415 10,300 C10,460.162585 139.837415,590 300,590 Z" id="outer-ring"></path>
                    <path d="M300,595 C462.924009,595 595,462.924009 595,300 C595,137.075991 462.924009,5 300,5 C137.075991,5 5,137.075991 5,300 C5,462.924009 137.075991,595 300,595 Z M300,585.166667 C457.493209,585.166667 585.166667,457.493209 585.166667,300 C585.166667,142.506791 457.493209,14.8333333 300,14.8333333 C142.506791,14.8333333 14.8333333,142.506791 14.8333333,300 C14.8333333,457.493209 142.506791,585.166667 300,585.166667 Z" id="inner-ring" filter="url(#filter-1)"></path>
                </g>
                <path d="M200,300 C200,274 241,259.999999 260,220 C278.999999,179.999999 283.999999,157.050653 284,121 C284,49 284,18.9999895 224,19 C199.980396,19.0000106 300,8 300,8 L300,300 C300,300 200,300.000001 200,300 C200,326 241,340.000001 260,380 C278.999999,420.000001 283.999999,442.949347 284,479 C284,551 284,581.00001 224,581 C199.980396,580.999989 300,592 300,592 L300,300 C300,300 200,299.999999 200,300 Z M400,300 C400,274 359,259.999999 340,220 C321.000001,179.999999 316.000001,157.050653 316,121 C316,49 316,18.9999895 376,19 C400.019604,19.0000106 300,8 300,8 L300,300 C300,300 400,300.000001 400,300 C400,326 359,340.000001 340,380 C321.000001,420.000001 316.000001,442.949347 316,479 C316,551 316,581.00001 376,581 C400.019604,580.999989 300,592 300,592 L300,300 C300,300 400,299.999999 400,300 L400,300 Z" id="flame" filter="url(#filter-2)"></path>
            </g>
            <path d="M373.218494,220.530712 C447.456559,232.218583 500,261.154855 500,295 C500,339.182782 410.456955,375 300,375 C189.543045,375 100,339.182782 100,295 C100,261.154855 152.543441,232.218583 226.781506,220.530712 C175.242471,228.834456 140,245.631083 140,265 C140,292.614239 211.634436,315 300,315 C388.365564,315 460,292.614239 460,265 C460,245.631083 424.757529,228.834456 373.218488,220.530711 Z" id="core" stroke="#494949" stroke-width="2" fill="#406793" sketch:type="MSShapeGroup"></path>
        </g>
    </g>
</svg>