<?xml version="1.0" encoding="UTF-8"?>
<svg width="569px" height="174px" viewBox="0 0 569 174" version="1.1" xmlns="http://www.w3.org/2000/svg" xmlns:xlink="http://www.w3.org/1999/xlink" xmlns:sketch="http://www.bohemiancoding.com/sketch/ns">
    <!-- Generator: Sketch 3.4.2 (15855) - http://www.bohemiancoding.com/sketch -->
    <title>pulsar-banner-600</title>
    <desc>Created with Sketch.</desc>
    <defs>
        <filter x="-50%" y="-50%" width="200%" height="200%" filterUnits="objectBoundingBox" id="filter-1">
            <feGaussianBlur stdDeviation="0" in="SourceGraphic" result="blur"></feGaussianBlur>
        </filter>
        <filter x="-50%" y="-50%" width="200%" height="200%" filterUnits="objectBoundingBox" id="filter-2">
            <feGaussianBlur stdDeviation="0" in="SourceGraphic" result="blur"></feGaussianBlur>
        </filter>
    </defs>
    <g id="Page-1" stroke="none" stroke-width="1" fill="none" fill-rule="evenodd" sketch:type="MSPage">
        <g id="pulsar-banner-600" sketch:type="MSLayerGroup" transform="translate(-31.000000, -30.000000)">
            <path d="M210.445764,73.6512286 C211.079291,71.1194303 212.092921,69.22061 213.486681,67.9547108 C214.880442,66.6888116 216.464238,66.0558715 218.238115,66.0558715 C219.885288,66.0558715 221.437407,66.6255176 222.894521,67.7648269 C224.351635,68.9041361 225.39694,70.6763684 226.030467,73.0815768 L226.030467,74.7905322 C228.944695,72.2587338 232.270665,70.3915605 236.008479,69.1889563 C239.746292,67.9863521 243.389022,67.385059 246.936777,67.385059 C251.878293,67.385059 256.4713,68.4610572 260.715936,70.6130858 C264.960571,72.7651144 268.666653,75.6766388 271.834291,79.3477465 C275.00193,83.0188541 277.472651,87.2911998 279.246528,92.1649116 C281.020406,97.0386235 281.907331,102.260379 281.907331,107.830336 C281.907331,113.906652 280.925378,119.476525 278.961442,124.540121 C276.997506,129.603718 274.114998,133.971005 270.313832,137.642112 C266.512666,141.31322 261.792955,144.193097 256.154559,146.281831 C250.516162,148.370565 243.959249,149.414916 236.483622,149.414916 C234.709745,149.414916 232.967569,149.351622 231.257045,149.225032 C229.54652,149.098442 227.804345,148.90856 226.030467,148.65538 L226.030467,188.720889 C225.903762,191.632457 225.048512,193.816101 223.464693,195.271885 C221.880874,196.727669 220.138699,197.45555 218.238115,197.45555 C216.464238,197.45555 214.817091,196.790963 213.296624,195.461769 C211.776158,194.132574 210.82588,192.075519 210.445764,189.290541 L210.445764,73.6512286 Z M227.931041,95.1081125 C227.67763,95.4878823 227.360871,95.8359993 226.980754,96.1524741 C226.600637,96.4689489 226.283878,96.753772 226.030467,97.0069518 L226.030467,132.895014 C227.804345,133.274784 229.54652,133.591254 231.257045,133.844434 C232.967569,134.097614 234.709745,134.224202 236.483622,134.224202 C240.79161,134.224202 244.782775,133.654556 248.457236,132.515246 C252.131696,131.375937 255.330963,129.730293 258.055132,127.578264 C260.779302,125.426236 262.901588,122.767887 264.422054,119.603139 C265.942521,116.438391 266.702742,112.830633 266.702742,108.779755 C266.702742,105.741597 266.227604,102.671838 265.277312,99.5703848 C264.327021,96.4689318 262.996632,93.6523484 261.286108,91.12055 C259.575583,88.5887516 257.58,86.5316963 255.299301,84.9493224 C253.018601,83.3669484 250.484528,82.5757732 247.697006,82.5757732 C245.543012,82.5757732 243.515754,82.9555373 241.615171,83.7150768 C239.714588,84.4746163 237.940737,85.4556735 236.293565,86.6582777 C234.646393,87.8608819 233.125949,89.1900561 231.732188,90.6458402 C230.338427,92.1016243 229.071391,93.5890335 227.931041,95.1081125 L227.931041,95.1081125 Z M358.888481,137.262345 C360.282242,139.034603 360.979112,140.996718 360.979112,143.148746 C360.979112,145.300775 360.282242,147.04136 358.888481,148.370554 C357.49472,149.699748 355.784221,150.364336 353.756932,150.364336 C350.969411,150.364336 348.562041,149.066808 346.534753,146.471715 C344.507464,143.876622 342.796965,140.93345 341.403204,137.642112 C338.10886,141.18663 334.244399,144.193096 329.809705,146.661599 C325.375011,149.130102 320.81368,150.364336 316.125575,150.364336 C312.704526,150.364336 309.410231,149.763043 306.242592,148.560438 C303.074954,147.357834 300.129094,145.71219 297.404925,143.623456 C294.680756,141.534722 292.273387,139.097903 290.182745,136.312925 C288.092104,133.527947 286.539984,130.616422 285.52634,127.578264 C284.512696,124.286926 283.815826,120.647521 283.435709,116.659938 C283.055593,112.672356 282.865537,108.526598 282.865537,104.222541 C282.865537,99.0323544 282.992241,93.9688336 283.245652,89.0318268 C283.499063,84.09482 283.625766,79.7275333 283.625766,75.9298358 C284.259294,73.3980374 285.272923,71.4992171 286.666684,70.2333179 C288.060445,68.9674187 289.644241,68.3344786 291.418118,68.3344786 C293.06529,68.3344786 294.61741,68.9041247 296.074524,70.043434 C297.531637,71.1827433 298.576942,72.9549755 299.21047,75.360184 C299.21047,81.3099101 299.115442,87.038018 298.925384,92.5446795 C298.735326,98.0513409 298.640298,103.906037 298.640298,110.108943 C298.640298,117.197978 300.160742,123.021027 303.201675,127.578264 C306.242608,132.135501 310.360476,134.414086 315.555403,134.414086 C317.455986,134.414086 319.356541,134.034322 321.257124,133.274782 C323.157707,132.515243 324.931558,131.502538 326.57873,130.236639 C328.225902,128.97074 329.746346,127.514978 331.140107,125.869309 C332.533868,124.22364 333.800904,122.577996 334.941254,120.932327 C335.194665,120.679147 335.511424,120.457618 335.891541,120.267733 C336.271657,120.077848 336.588416,119.856319 336.841827,119.603139 C336.081594,113.273643 335.701483,106.880948 335.701483,100.424862 C335.701483,96.7537549 335.733159,93.0510553 335.796512,89.3166527 C335.859865,85.5822501 336.176624,82.1643736 336.746799,79.0629206 C337.316974,75.9614676 338.267251,73.4297072 339.597659,71.4675635 C340.928067,69.5054197 342.796946,68.5243626 345.204351,68.5243626 C347.104934,68.5243626 348.815434,69.2522437 350.3359,70.7080277 C351.856366,72.1638118 352.616588,74.2841611 352.616588,77.0691393 C352.616588,79.9807075 352.394857,83.525172 351.951388,87.7026393 C351.507918,91.8801066 351.286187,96.2473933 351.286187,100.80463 C351.286187,104.349148 351.41289,107.893613 351.666302,111.43813 C351.919713,114.982648 352.331499,118.368878 352.901674,121.59692 C353.471849,124.824963 354.232071,127.768135 355.182363,130.426523 C356.132654,133.084911 357.368015,135.363496 358.888481,137.262345 L358.888481,137.262345 Z M385.504431,141.249907 C387.78513,142.895576 389.115519,144.762749 389.495635,146.851483 C389.875752,148.940217 389.590669,150.744096 388.640377,152.263175 C387.690086,153.782254 386.232994,154.858252 384.269058,155.491202 C382.305122,156.124151 380.056132,155.807681 377.522022,154.541782 C376.381672,153.782243 375.241339,153.022714 374.100989,152.263175 C372.960639,151.503635 371.756955,150.744107 370.489899,149.984568 C369.349549,148.971848 368.589328,148.022438 368.209211,147.136309 C367.829094,146.250179 367.512335,144.984299 367.258924,143.33863 L367.258924,37.9530501 C367.765746,35.5478417 368.747699,33.7123154 370.204813,32.4464162 C371.661927,31.180517 373.182371,30.5159299 374.76619,30.452635 C376.350009,30.38934 377.902129,30.9273391 379.422595,32.0666484 C380.943062,33.2059576 382.083394,34.9781899 382.843628,37.3833984 L382.843628,139.540952 C383.223744,139.794132 383.635531,140.078955 384.079001,140.395429 C384.52247,140.711904 384.997609,140.996727 385.504431,141.249907 L385.504431,141.249907 Z M395.015218,136.502809 C393.874868,134.22419 393.494757,132.167135 393.874874,130.331581 C394.25499,128.496027 395.046888,127.040265 396.250591,125.964251 C397.454293,124.888237 399.006413,124.350237 400.906996,124.350237 C402.807579,124.350237 404.771485,125.046472 406.798774,126.438961 C409.713002,130.110068 413.165676,132.958299 417.1569,134.983737 C421.148125,137.009176 425.424373,138.211762 429.985772,138.591532 L433.976977,137.452228 C434.990621,136.692689 435.687491,136.186337 436.067608,135.933157 C436.447724,135.679977 436.732807,135.458448 436.922866,135.268563 C437.112924,135.078678 437.366331,134.793855 437.683095,134.414086 C437.999859,134.034316 438.53835,133.338082 439.298583,132.325362 C439.551994,131.819003 439.742049,131.312651 439.868755,130.806291 C439.99546,130.299931 440.185516,129.730285 440.438927,129.097336 C440.438927,128.464386 440.470603,127.89474 440.533956,127.38838 C440.597308,126.882021 440.628984,126.312375 440.628984,125.679425 L439.48864,122.261514 C439.108523,121.755155 438.696737,121.248802 438.253267,120.742443 C437.809798,120.236083 437.398011,119.729731 437.017894,119.223371 C433.850256,117.197933 430.682665,115.74217 427.515026,114.856041 C424.347388,113.969912 421.274825,113.052148 418.297244,112.102724 C415.319664,111.1533 412.405481,109.919066 409.554606,108.399987 C406.703731,106.880908 404.011279,104.412442 401.477168,100.994514 C399.069763,97.9563562 397.77105,94.4435387 397.580992,90.4559563 C397.390934,86.4683738 398.024452,82.6390862 399.481566,78.9679786 C400.938679,75.296871 403.092641,72.0372295 405.943516,69.1889563 C408.794391,66.3406832 412.057009,64.5368039 415.73147,63.7772644 C421.053103,62.5113652 426.469683,62.3847772 431.981374,63.3974965 C437.493065,64.4102159 442.656239,66.1824481 447.471049,68.7142465 C449.751749,70.3599154 451.082137,72.2270887 451.462254,74.3158224 C451.84237,76.404556 451.557287,78.2084353 450.606996,79.7275143 C449.656704,81.2465933 448.199612,82.3225915 446.235676,82.9555411 C444.271741,83.5884907 442.022751,83.2720206 439.48864,82.0061215 C436.447707,80.3604525 433.24844,79.2844544 429.890743,78.7780947 C426.533047,78.271735 423.143724,78.271735 419.722675,78.7780947 C419.342558,79.0312745 418.930771,79.2211566 418.487302,79.3477465 C418.043832,79.4743364 417.632046,79.6642184 417.251929,79.9173983 C415.858168,81.4364773 414.844539,82.9238865 414.211011,84.3796706 C413.577483,85.8354546 413.324076,87.6393339 413.450782,89.7913625 C413.577487,90.2977222 413.894246,91.0572503 414.401069,92.0699697 C414.781185,92.5763293 415.161296,93.0193874 415.541413,93.3991572 C415.921529,93.7789269 416.30164,94.221985 416.681757,94.7283446 C419.72269,96.3740136 423.04866,97.6715408 426.659768,98.6209652 C430.270876,99.5703896 433.786902,100.646388 437.207952,101.848992 C440.629001,103.051596 443.796592,104.633946 446.71082,106.59609 C449.625047,108.558234 451.905713,111.438111 453.552885,115.235809 C456.593818,122.451434 457.068956,129.097305 454.978315,135.173621 C452.887674,141.249937 448.674778,146.376752 442.339501,150.55422 C440.692328,151.566939 438.855126,152.421408 436.827837,153.117653 C434.800548,153.813897 432.899994,154.162014 431.126116,154.162014 C424.284017,154.162014 417.568724,152.611311 410.980036,149.509858 C404.391348,146.408405 399.069795,142.072765 395.015218,136.502809 L395.015218,136.502809 Z M533.384895,142.199327 C533.384895,142.325917 533.321543,142.389211 533.194838,142.389211 C533.955071,144.161469 534.145127,145.807114 533.76501,147.326193 C533.384893,148.845272 532.656347,150.079505 531.57935,151.028929 C530.502353,151.978354 529.108613,152.579647 527.398088,152.832827 C525.687564,153.086006 523.818685,152.706242 521.791396,151.693523 C520.651046,150.554214 519.574065,149.319981 518.560421,147.990786 C517.546777,146.661592 516.659851,145.300771 515.899618,143.908282 C513.365507,146.060311 510.641379,148.054072 507.727152,149.889626 C504.812924,151.72518 501.89874,152.706237 498.984513,152.832827 C493.916291,153.086006 488.911498,153.149301 483.969981,153.022711 C479.028465,152.896121 474.340431,151.250476 469.905737,148.085728 C466.231276,145.42734 463.41212,142.26264 461.448184,138.591532 C459.484248,134.920424 458.217212,131.027843 457.647037,126.91367 C457.076862,122.799498 457.108538,118.590446 457.742066,114.286389 C458.375593,109.982332 459.452574,105.868221 460.973041,101.943934 C461.606569,100.171675 462.430142,98.4627368 463.443787,96.8170679 C464.457431,95.1713989 465.47106,93.4624607 466.484704,91.6902018 C467.878465,89.1584034 469.462261,86.7848781 471.236138,84.5695545 C473.010016,82.3542309 475.037274,80.4237636 477.317974,78.7780947 C478.965146,77.6387854 480.580617,76.4994932 482.164437,75.360184 C483.748256,74.2208747 485.363727,73.1448765 487.010899,72.1321572 C488.151249,71.3726177 489.893424,70.5814426 492.237477,69.7586081 C494.581529,68.9357736 497.115602,68.2395395 499.839771,67.6698849 C502.56394,67.1002303 505.288068,66.8154072 508.012238,66.8154072 C510.736407,66.8154072 513.048748,67.1951713 514.949331,67.9547108 C516.723209,67.7015309 518.465384,68.144589 520.175909,69.2838983 C521.886433,70.4232075 523.185146,72.2587338 524.072085,74.7905322 C524.072085,83.3986466 524.008733,92.069926 523.882027,100.80463 C523.755322,109.539335 524.325488,118.210614 525.592543,126.818729 C525.719249,127.958038 526.194388,129.318859 527.017974,130.901233 C527.84156,132.483607 528.728485,134.03431 529.678777,135.553389 C530.629068,137.072468 531.484318,138.464936 532.244551,139.730836 C533.004784,140.996735 533.384895,141.819557 533.384895,142.199327 L533.384895,142.199327 Z M509.24761,129.097336 C509.501022,128.970746 509.691077,128.844158 509.817783,128.717568 C509.944488,128.590978 510.134544,128.46439 510.387955,128.3378 C508.740783,120.742405 507.948885,112.862301 508.012238,104.697251 C508.07559,96.5322011 508.170618,89.031861 508.297324,82.1960054 C507.156974,82.1960054 505.889937,82.3225934 504.496176,82.5757732 C503.102415,82.8289531 501.740351,83.1770701 500.409943,83.6201349 C499.079535,84.0631996 497.87585,84.4746106 496.798853,84.8543804 C495.721856,85.2341501 494.929958,85.5506202 494.423136,85.8038 C490.62197,87.5760589 487.391027,89.8862902 484.730211,92.7345634 C482.069395,95.5828366 479.883757,98.7475371 478.173232,102.22876 C476.462707,105.709983 475.163995,109.381035 474.277056,113.242028 C473.390117,117.10302 472.946655,120.995602 472.946655,124.919889 C473.200066,125.932609 473.516825,126.945313 473.896941,127.958032 C474.277058,128.970751 474.593817,129.983456 474.847228,130.996175 C475.480756,131.629125 476.14595,132.325359 476.84283,133.084898 C477.539711,133.844438 478.268257,134.540672 479.02849,135.173621 C480.16884,135.679981 481.309173,136.123039 482.449523,136.502809 C483.589872,136.882579 484.730205,137.262343 485.870555,137.642112 C488.024549,137.642112 490.115159,137.705406 492.142448,137.831996 C494.169737,137.958586 496.196995,137.70541 498.224284,137.072461 C500.124867,135.806561 501.993745,134.540681 503.830976,133.274782 C505.668206,132.008883 507.473733,130.616415 509.24761,129.097336 L509.24761,129.097336 Z M538.334306,84.2847286 C536.433723,83.2720093 535.039982,82.0694231 534.153044,80.676934 C533.266105,79.2844449 532.822642,77.8919767 532.822642,76.4994875 C532.822642,74.6006388 533.519512,72.9233475 534.913273,71.4675635 C536.307034,70.0117794 538.207589,69.2838983 540.614994,69.2838983 C542.388872,69.2838983 544.606185,69.9168384 547.267002,71.1827376 C549.927818,72.4486367 552.018428,73.841105 553.538894,75.360184 C557.466766,72.0688461 561.521283,69.3472037 565.702566,67.1951751 C569.883848,65.0431465 574.12842,63.9671483 578.436409,63.9671483 C579.703464,63.9671483 581.540667,64.2836183 583.948072,64.9165679 C586.355477,65.5495175 588.731171,66.4989277 591.075223,67.7648269 C593.419276,69.030726 595.47821,70.6763703 597.252087,72.701809 C599.025965,74.7272477 599.91289,77.069126 599.91289,79.7275143 C599.91289,81.8795429 599.21602,83.6201282 597.822259,84.9493224 C596.428498,86.2785165 594.717999,86.9431036 592.690711,86.9431036 C591.29695,86.9431036 590.061589,86.5316925 588.984592,85.7088581 C587.907595,84.8860236 586.830614,83.9999075 585.753617,83.0504831 C584.67662,82.1010587 583.536287,81.2465895 582.332585,80.48705 C581.128882,79.7275105 579.766818,79.3477465 578.246351,79.3477465 C576.472474,79.3477465 574.540243,79.8857456 572.449602,80.9617599 C570.35896,82.0377742 568.26835,83.3353014 566.177709,84.8543804 C564.087067,86.3734594 562.091485,88.0191037 560.190902,89.7913625 C558.290319,91.5636214 556.643172,93.1459716 555.249411,94.5384607 L555.249411,145.047586 C555.122705,147.959154 554.267456,150.142797 552.683636,151.598581 C551.099817,153.054365 549.357642,153.782246 547.457059,153.782246 C545.683181,153.782246 544.036034,153.117659 542.515568,151.788465 C540.995101,150.459271 540.044824,148.402216 539.664707,145.617237 L539.664707,93.778925 C539.664707,93.5257452 539.633031,93.2409221 539.569678,92.9244473 C539.506326,92.6079725 539.47465,92.3231495 539.47465,92.0699697 C539.47465,91.8167898 539.506326,91.5319668 539.569678,91.215492 C539.633031,90.8990172 539.664707,90.6141941 539.664707,90.3610143 L539.664707,84.8543804 C539.157885,84.6012005 538.714422,84.4113185 538.334306,84.2847286 L538.334306,84.2847286 Z" id="pulsar" fill="#416793" sketch:type="MSShapeGroup"></path>
            <g id="pulsar" transform="translate(117.479490, 117.372287) rotate(-30.000000) translate(-117.479490, -117.372287) translate(31.478534, 31.449810)" sketch:type="MSShapeGroup">
                <path d="M128.015099,81.6523532 C130.492862,79.8913618 131.868132,77.9449187 131.868132,75.8981884 C131.868132,67.9892424 111.332699,61.5777755 86.0009556,61.5777755 C60.6692123,61.5777755 40.1337793,67.9892424 40.1337793,75.8981884 C40.1337793,77.9449187 41.5090489,79.8913618 43.9868118,81.6523532 C51.5763012,76.8885341 67.5381543,73.6069224 86.0009556,73.6069224 C104.463757,73.6069224 120.42561,76.8885341 128.015099,81.6523532 Z" id="core-back" fill="#6A6A6A"></path>
                <g id="ring-+-flame" transform="translate(-0.000000, 0.000000)" fill="#F8E71C">
                    <g id="ring">
                        <path d="M86.0009556,171.844955 C133.497974,171.844955 172.001911,133.376154 172.001911,85.9224775 C172.001911,38.4688012 133.497974,0 86.0009556,0 C38.503937,0 0,38.4688012 0,85.9224775 C0,133.376154 38.503937,171.844955 86.0009556,171.844955 Z M86.0009556,168.980872 C131.91474,168.980872 169.135213,131.794365 169.135213,85.9224775 C169.135213,40.0505904 131.91474,2.86408258 86.0009556,2.86408258 C40.0871709,2.86408258 2.86669852,40.0505904 2.86669852,85.9224775 C2.86669852,131.794365 40.0871709,168.980872 86.0009556,168.980872 Z" id="outer-ring"></path>
                        <path d="M86.0009556,170.412914 C132.706357,170.412914 170.568562,132.585259 170.568562,85.9224775 C170.568562,39.2596958 132.706357,1.43204129 86.0009556,1.43204129 C39.295554,1.43204129 1.43334926,39.2596958 1.43334926,85.9224775 C1.43334926,132.585259 39.295554,170.412914 86.0009556,170.412914 Z M86.0009556,167.596566 C131.14951,167.596566 167.749642,131.029833 167.749642,85.9224775 C167.749642,40.8151218 131.14951,4.24838916 86.0009556,4.24838916 C40.8524007,4.24838916 4.25226947,40.8151218 4.25226947,85.9224775 C4.25226947,131.029833 40.8524007,167.596566 86.0009556,167.596566 Z" id="inner-ring" filter="url(#filter-1)"></path>
                    </g>
                    <path d="M57.3339704,85.9224775 C57.3339704,78.4758628 69.0874343,74.4661469 74.5341615,63.0098168 C79.9808885,51.5534862 81.4142378,44.9806041 81.4142379,34.6553993 C81.4142379,14.0340047 81.4142379,5.4417539 64.2140468,5.44175691 C57.3283505,5.44175994 86.0009556,2.29126607 86.0009556,2.29126607 L86.0009556,85.9224775 C86.0009556,85.9224775 57.3339704,85.9224777 57.3339704,85.9224775 C57.3339704,93.3690922 69.0874343,97.3788081 74.5341615,108.835138 C79.9808885,120.291469 81.4142378,126.864351 81.4142379,137.189556 C81.4142379,157.81095 81.4142379,166.403201 64.2140468,166.403198 C57.3283505,166.403195 86.0009556,169.553689 86.0009556,169.553689 L86.0009556,85.9224775 C86.0009556,85.9224775 57.3339704,85.9224773 57.3339704,85.9224775 Z M114.667941,85.9224775 C114.667941,78.4758628 102.914477,74.4661469 97.4677496,63.0098168 C92.0210226,51.5534862 90.5876734,44.9806041 90.5876732,34.6553993 C90.5876732,14.0340047 90.5876732,5.4417539 107.787864,5.44175691 C114.673561,5.44175994 86.0009556,2.29126607 86.0009556,2.29126607 L86.0009556,85.9224775 C86.0009556,85.9224775 114.667941,85.9224777 114.667941,85.9224775 C114.667941,93.3690922 102.914477,97.3788081 97.4677496,108.835138 C92.0210226,120.291469 90.5876734,126.864351 90.5876732,137.189556 C90.5876732,157.81095 90.5876732,166.403201 107.787864,166.403198 C114.673561,166.403195 86.0009556,169.553689 86.0009556,169.553689 L86.0009556,85.9224775 C86.0009556,85.9224775 114.667941,85.9224773 114.667941,85.9224775 Z" id="flame" filter="url(#filter-2)"></path>
                </g>
                <path d="M106.99049,63.1618171 C128.272306,66.5093199 143.334926,74.796907 143.334926,84.4904362 C143.334926,97.1447499 117.665635,107.403097 86.0009556,107.403097 C54.3362765,107.403097 28.6669852,97.1447499 28.6669852,84.4904362 C28.6669852,74.796907 43.7296055,66.5093199 65.0114209,63.1618171 C50.2367325,65.5400782 40.1337793,70.350771 40.1337793,75.8981884 C40.1337793,83.8071345 60.6692123,90.2186014 86.0009556,90.2186014 C111.332699,90.2186014 131.868132,83.8071345 131.868132,75.8981884 C131.868132,70.350771 121.765179,65.5400782 106.99049,63.1618171 Z" id="core" fill="#406793"></path>
            </g>
        </g>
    </g>
</svg>