<?xml version="1.0" encoding="UTF-8" standalone="no"?>
<svg width="560px" height="420px" viewBox="0 0 560 420" version="1.1" xmlns="http://www.w3.org/2000/svg" xmlns:xlink="http://www.w3.org/1999/xlink" xmlns:sketch="http://www.bohemiancoding.com/sketch/ns">
    <title>monitors</title>
    <description>Created with Sketch (http://www.bohemiancoding.com/sketch)</description>
    <defs></defs>
    <g id="Page-1" stroke="none" stroke-width="1" fill="none" fill-rule="evenodd" sketch:type="MSPage">
        <g id="Monitors" sketch:type="MSLayerGroup" transform="translate(20.000000, 10.000000)">
            <path d="M414,136 L348,136" id="Line" stroke="#517196" stroke-width="4" stroke-linecap="square" sketch:type="MSShapeGroup"></path>
            <path d="M221,47 L273,102" id="Line" stroke="#517196" stroke-width="4" stroke-linecap="square" sketch:type="MSShapeGroup"></path>
            <path d="M242,155 L176,206" id="Line" stroke="#517196" stroke-width="4" stroke-linecap="square" sketch:type="MSShapeGroup"></path>
            <g id="Arbiter" transform="translate(234.000000, 78.000000)">
                <path d="M60,120 C93.1370866,120 120,93.1370866 120,60 C120,26.8629134 93.1370866,0 60,0 C26.8629134,0 0,26.8629134 0,60 C0,93.1370866 26.8629134,120 60,120 Z" id="Oval-1" stroke="#517196" stroke-width="3" fill="#2C4057" sketch:type="MSShapeGroup"></path>
                <text id="IO-loop" sketch:type="MSTextLayer" font-family="Hiragino Maru Gothic ProN" font-size="16.3333333" font-weight="normal" sketch:alignment="middle" fill="#FFFFFF">
                    <tspan x="31.6535" y="82.4">IO loop</tspan>
                </text>
                <text sketch:type="MSTextLayer" font-family="Hiragino Maru Gothic ProN" font-size="23.3333333" font-weight="normal" sketch:alignment="middle" fill="#FFFFFF">
                    <tspan x="19.645" y="49.8">Arbiter</tspan>
                </text>
            </g>
            <g id="WSGI-Monitor" transform="translate(0.000000, 198.000000)">
                <g id="WSGI-Actor" transform="translate(0.000000, 98.502622)">
                    <path d="M50,100 C77.6142389,100 100,77.6142389 100,50 C100,22.3857611 77.6142389,0 50,0 C22.3857611,0 0,22.3857611 0,50 C0,77.6142389 22.3857611,100 50,100 Z" id="Oval-1" stroke="#979797" stroke-width="4" fill="#F1ECA5" sketch:type="MSShapeGroup"></path>
                    <text id="IO-loop" sketch:type="MSTextLayer" font-family="Hiragino Maru Gothic ProN" font-size="14" font-weight="normal" sketch:alignment="middle" fill="#000000">
                        <tspan x="25.5" y="69">IO loop</tspan>
                    </text>
                    <text sketch:type="MSTextLayer" font-family="Hiragino Maru Gothic ProN" font-size="13" font-weight="normal" sketch:alignment="middle" fill="#000000">
                        <tspan x="12.144" y="40.0000021">WSGI Actor</tspan>
                    </text>
                </g>
                <g id="WSGI-Actor" transform="translate(223.000000, 98.502622)">
                    <path d="M50,100 C77.6142389,100 100,77.6142389 100,50 C100,22.3857611 77.6142389,0 50,0 C22.3857611,0 0,22.3857611 0,50 C0,77.6142389 22.3857611,100 50,100 Z" id="Oval-1" stroke="#979797" stroke-width="4" fill="#F1ECA5" sketch:type="MSShapeGroup"></path>
                    <text id="IO-loop" sketch:type="MSTextLayer" font-family="Hiragino Maru Gothic ProN" font-size="14" font-weight="normal" sketch:alignment="middle" fill="#000000">
                        <tspan x="25.5" y="69">IO loop</tspan>
                    </text>
                    <text sketch:type="MSTextLayer" font-family="Hiragino Maru Gothic ProN" font-size="13" font-weight="normal" sketch:alignment="middle" fill="#000000">
                        <tspan x="12.144" y="40.0000021">WSGI Actor</tspan>
                    </text>
                </g>
                <g id="WSGI-Actor" transform="translate(112.000000, 98.502622)">
                    <path d="M50,100 C77.6142389,100 100,77.6142389 100,50 C100,22.3857611 77.6142389,0 50,0 C22.3857611,0 0,22.3857611 0,50 C0,77.6142389 22.3857611,100 50,100 Z" id="Oval-1" stroke="#979797" stroke-width="4" fill="#F1ECA5" sketch:type="MSShapeGroup"></path>
                    <text id="IO-loop" sketch:type="MSTextLayer" font-family="Hiragino Maru Gothic ProN" font-size="14" font-weight="normal" sketch:alignment="middle" fill="#000000">
                        <tspan x="25.5" y="69">IO loop</tspan>
                    </text>
                    <text sketch:type="MSTextLayer" font-family="Hiragino Maru Gothic ProN" font-size="13" font-weight="normal" sketch:alignment="middle" fill="#000000">
                        <tspan x="12.144" y="40.0000021">WSGI Actor</tspan>
                    </text>
                </g>
                <g id="messages" transform="translate(234.000000, 80.000000) rotate(-311.000000) translate(-234.000000, -80.000000) translate(209.000000, 76.500000)" stroke="#979797" stroke-linecap="square" fill="#9B9B9B">
                    <path d="M0.154320988,5.5 L49.845679,5.5" id="Line" sketch:type="MSShapeGroup"></path>
                    <path id="Line-decoration-1" d="M49.1543223,5.5 C45.3743222,4.45 42.1343221,3.55 38.354322,2.5 C38.354322,4.6 38.354322,6.4 38.354322,8.5 C42.1343221,7.45 45.3743222,6.55 49.1543223,5.5 C49.1543223,5.5 49.1543223,5.5 49.1543223,5.5 Z"></path>
                    <path d="M49.845679,0.5 L0.154320988,0.5" id="Line" sketch:type="MSShapeGroup"></path>
                    <path id="Line-decoration-1" d="M0.845677666,0.5 C4.62567793,1.55 7.86567815,2.45 11.6456784,3.5 C11.6456781,1.4 11.6456778,-0.4 11.6456775,-2.5 C7.86567756,-1.45 4.62567761,-0.55 0.845677666,0.5 C0.845677666,0.5 0.845677666,0.5 0.845677666,0.5 Z"></path>
                </g>
                <g id="Monitor" transform="translate(105.000000, 0.000000)">
                    <rect id="Rectangle-1" stroke="#517196" stroke-width="4" fill="#F1ECA5" sketch:type="MSShapeGroup" x="0" y="0" width="111" height="57" rx="8"></rect>
                    <text id="WSGI-Monitor" sketch:type="MSTextLayer" font-family="Hiragino Maru Gothic ProN" font-size="14" font-weight="normal" sketch:alignment="middle" fill="#000000">
                        <tspan x="36.327" y="24">WSGI </tspan>
                        <tspan x="28.697" y="45">Monitor</tspan>
                    </text>
                </g>
                <g id="messages" transform="translate(85.000000, 79.500000) rotate(-42.000000) translate(-85.000000, -79.500000) translate(60.000000, 76.000000)" stroke="#979797" stroke-linecap="square" fill="#9B9B9B">
                    <path d="M0.154320988,5.5 L49.845679,5.5" id="Line" sketch:type="MSShapeGroup"></path>
                    <path id="Line-decoration-1" d="M49.1543223,5.5 C45.3743222,4.45 42.1343221,3.55 38.354322,2.5 C38.354322,4.6 38.354322,6.4 38.354322,8.5 C42.1343221,7.45 45.3743222,6.55 49.1543223,5.5 C49.1543223,5.5 49.1543223,5.5 49.1543223,5.5 Z"></path>
                    <path d="M49.845679,0.5 L0.154320988,0.5" id="Line" sketch:type="MSShapeGroup"></path>
                    <path id="Line-decoration-1" d="M0.845677666,0.5 C4.62567793,1.55 7.86567815,2.45 11.6456784,3.5 C11.6456781,1.4 11.6456778,-0.4 11.6456775,-2.5 C7.86567756,-1.45 4.62567761,-0.55 0.845677666,0.5 C0.845677666,0.5 0.845677666,0.5 0.845677666,0.5 Z"></path>
                </g>
                <g id="messages" transform="translate(159.000000, 76.500000) rotate(-91.000000) translate(-159.000000, -76.500000) translate(144.000000, 73.000000)" stroke="#979797" stroke-linecap="square" fill="#9B9B9B">
                    <path d="M0.0925925926,5.5 L29.9074074,5.5" id="Line" sketch:type="MSShapeGroup"></path>
                    <path id="Line-decoration-1" d="M29.0925919,5.5 C25.312592,4.45 22.0725921,3.55 18.2925922,2.5 C18.2925922,4.6 18.2925922,6.4 18.2925922,8.5 C22.0725921,7.45 25.312592,6.55 29.0925919,5.5 C29.0925919,5.5 29.0925919,5.5 29.0925919,5.5 Z"></path>
                    <path d="M29.9074074,0.5 L0.0925925926,0.5" id="Line" sketch:type="MSShapeGroup"></path>
                    <path id="Line-decoration-1" d="M0.907408095,0.5 C4.68740816,1.55 7.92740822,2.45 11.7074083,3.5 C11.707408,1.4 11.7074077,-0.4 11.7074074,-2.5 C7.92740763,-1.45 4.68740785,-0.55 0.907408095,0.5 C0.907408095,0.5 0.907408095,0.5 0.907408095,0.5 Z"></path>
                </g>
            </g>
            <g id="Twitter-Monitor" transform="translate(412.000000, 107.000000)">
                <g id="Oval-1-+-IO-+-Actor" transform="translate(7.000000, 98.247293)">
                    <path d="M50,100 C77.6142389,100 100,77.6142389 100,50 C100,22.3857611 77.6142389,0 50,0 C22.3857611,0 0,22.3857611 0,50 C0,77.6142389 22.3857611,100 50,100 Z" id="Oval-1" stroke="#9B9B9B" stroke-width="4" fill="#B7D49A" sketch:type="MSShapeGroup"></path>
                    <text id="IO-loop" sketch:type="MSTextLayer" font-family="Hiragino Maru Gothic ProN" font-size="14" font-weight="normal" sketch:alignment="middle" fill="#000000">
                        <tspan x="25.5" y="75">IO loop</tspan>
                    </text>
                    <text id="Twitter-Actor" sketch:type="MSTextLayer" font-family="Hiragino Maru Gothic ProN" font-size="13" font-weight="normal" sketch:alignment="middle" fill="#000000">
                        <tspan x="7.5" y="48">Twitter Actor</tspan>
                    </text>
                </g>
                <g id="Rectangle-1-+-Monitor">
                    <rect id="Rectangle-1" stroke="#517196" stroke-width="4" fill="#B7D49A" sketch:type="MSShapeGroup" x="0" y="0" width="111" height="57" rx="8"></rect>
                    <text id="T" sketch:type="MSTextLayer" font-family="Hiragino Maru Gothic ProN" font-size="14" font-weight="normal" sketch:alignment="middle" fill="#000000">
                        <tspan x="31.497" y="23">Twitter </tspan>
                        <tspan x="28.697" y="44">Monitor</tspan>
                    </text>
                </g>
                <g id="messages" transform="translate(54.000000, 76.500000) rotate(-91.000000) translate(-54.000000, -76.500000) translate(39.000000, 73.000000)" stroke="#979797" stroke-linecap="square" fill="#9B9B9B">
                    <path d="M0.0925925926,5.5 L29.9074074,5.5" id="Line" sketch:type="MSShapeGroup"></path>
                    <path id="Line-decoration-1" d="M29.0925919,5.5 C25.312592,4.45 22.0725921,3.55 18.2925922,2.5 C18.2925922,4.6 18.2925922,6.4 18.2925922,8.5 C22.0725921,7.45 25.312592,6.55 29.0925919,5.5 C29.0925919,5.5 29.0925919,5.5 29.0925919,5.5 Z"></path>
                    <path d="M29.9074074,0.5 L0.0925925926,0.5" id="Line" sketch:type="MSShapeGroup"></path>
                    <path id="Line-decoration-1" d="M0.907408095,0.5 C4.68740816,1.55 7.92740822,2.45 11.7074083,3.5 C11.707408,1.4 11.7074077,-0.4 11.7074074,-2.5 C7.92740763,-1.45 4.68740785,-0.55 0.907408095,0.5 C0.907408095,0.5 0.907408095,0.5 0.907408095,0.5 Z"></path>
                </g>
            </g>
            <g id="Datastore" transform="translate(10.000000, 0.000000)">
                <g id="Oval-1-+-IO-+-Actor" transform="translate(0.000000, 66.247293)">
                    <path d="M50,100 C77.6142389,100 100,77.6142389 100,50 C100,22.3857611 77.6142389,0 50,0 C22.3857611,0 0,22.3857611 0,50 C0,77.6142389 22.3857611,100 50,100 Z" id="Oval-1" stroke="#9B9B9B" stroke-width="4" fill="#CAE2FF" sketch:type="MSShapeGroup"></path>
                    <text id="IO-loop" sketch:type="MSTextLayer" font-family="Hiragino Maru Gothic ProN" font-size="14" font-weight="normal" sketch:alignment="middle" fill="#000000">
                        <tspan x="25.5" y="75">IO loop</tspan>
                    </text>
                    <text id="DS-Actor" sketch:type="MSTextLayer" font-family="Hiragino Maru Gothic ProN" font-size="13" font-weight="normal" sketch:alignment="middle" fill="#000000">
                        <tspan x="20.5" y="48">DS Actor</tspan>
                    </text>
                </g>
                <g id="Monitor" transform="translate(118.000000, 0.000000)">
                    <rect id="Rectangle-1" stroke="#517196" stroke-width="4" fill="#CAE2FF" sketch:type="MSShapeGroup" x="0" y="0" width="111" height="57" rx="8"></rect>
                    <text id="T" sketch:type="MSTextLayer" font-family="Hiragino Maru Gothic ProN" font-size="14" font-weight="normal" sketch:alignment="middle" fill="#000000">
                        <tspan x="16.272" y="23">DS Monitor</tspan>
                    </text>
                </g>
                <g id="messages" transform="translate(100.000000, 60.500000) rotate(-37.000000) translate(-100.000000, -60.500000) translate(85.000000, 57.000000)" stroke="#979797" stroke-linecap="square" fill="#9B9B9B">
                    <path d="M0.0925925926,5.5 L29.9074074,5.5" id="Line" sketch:type="MSShapeGroup"></path>
                    <path id="Line-decoration-1" d="M29.0925919,5.5 C25.312592,4.45 22.0725921,3.55 18.2925922,2.5 C18.2925922,4.6 18.2925922,6.4 18.2925922,8.5 C22.0725921,7.45 25.312592,6.55 29.0925919,5.5 C29.0925919,5.5 29.0925919,5.5 29.0925919,5.5 Z"></path>
                    <path d="M29.9074074,0.5 L0.0925925926,0.5" id="Line" sketch:type="MSShapeGroup"></path>
                    <path id="Line-decoration-1" d="M0.907408095,0.5 C4.68740816,1.55 7.92740822,2.45 11.7074083,3.5 C11.707408,1.4 11.7074077,-0.4 11.7074074,-2.5 C7.92740763,-1.45 4.68740785,-0.55 0.907408095,0.5 C0.907408095,0.5 0.907408095,0.5 0.907408095,0.5 Z"></path>
                </g>
            </g>
        </g>
        <path d="M432.5,267.5 L132.5,146.5" id="Line" stroke="#979797" stroke-linecap="square" fill="#9B9B9B" sketch:type="MSShapeGroup"></path>
        <path id="Line-decoration-1" d="M132.947571,146.68052 C136.060413,149.068222 138.728562,151.114824 141.841404,153.502526 C142.626917,151.554971 143.300214,149.885639 144.085728,147.938084 C140.187373,147.497937 136.845926,147.120668 132.947571,146.68052 C132.947571,146.68052 132.947571,146.68052 132.947571,146.68052 Z" stroke="#979797" stroke-linecap="square" fill="#9B9B9B"></path>
        <path d="M104.5,179.5 L125.5,205.5" id="Line" stroke="#979797" stroke-linecap="square" fill="#9B9B9B" sketch:type="MSShapeGroup"></path>
        <path id="Line-decoration-1" d="M125.235124,205.172058 C123.676848,201.571687 122.341183,198.485654 120.782907,194.885282 C119.14923,196.20479 117.748936,197.335797 116.11526,198.655305 C119.307212,200.936169 122.043172,202.891195 125.235124,205.172058 C125.235124,205.172058 125.235124,205.172058 125.235124,205.172058 Z" stroke="#979797" stroke-linecap="square" fill="#9B9B9B"></path>
    </g>
</svg>