<?xml version="1.0" encoding="UTF-8"?>
<svg width="1984px" height="604px" viewBox="0 0 1984 604" version="1.1" xmlns="http://www.w3.org/2000/svg" xmlns:xlink="http://www.w3.org/1999/xlink" xmlns:sketch="http://www.bohemiancoding.com/sketch/ns">
    <!-- Generator: Sketch 3.4.2 (15855) - http://www.bohemiancoding.com/sketch -->
    <title>pulsar-banner</title>
    <desc>Created with Sketch.</desc>
    <defs>
        <filter x="-50%" y="-50%" width="200%" height="200%" filterUnits="objectBoundingBox" id="filter-1">
            <feGaussianBlur stdDeviation="0" in="SourceGraphic" result="blur"></feGaussianBlur>
        </filter>
        <filter x="-50%" y="-50%" width="200%" height="200%" filterUnits="objectBoundingBox" id="filter-2">
            <feGaussianBlur stdDeviation="0" in="SourceGraphic" result="blur"></feGaussianBlur>
        </filter>
    </defs>
    <g id="Page-1" stroke="none" stroke-width="1" fill="none" fill-rule="evenodd" sketch:type="MSPage">
        <g id="pulsar-banner" sketch:type="MSLayerGroup" transform="translate(-109.000000, -106.000000)">
            <path d="M734.104972,257.154696 C736.314928,248.314873 739.850804,241.685105 744.712707,237.265193 C749.57461,232.845282 755.099417,230.635359 761.287293,230.635359 C767.033178,230.635359 772.447488,232.62429 777.530387,236.60221 C782.613285,240.58013 786.259657,246.767914 788.469613,255.165746 L788.469613,261.132597 C798.63541,252.292773 810.237504,245.773502 823.276243,241.574586 C836.314982,237.37567 849.022038,235.276243 861.39779,235.276243 C878.635445,235.276243 894.657385,239.033112 909.464088,246.546961 C924.270792,254.060811 937.19884,264.226455 948.248619,277.044199 C959.298398,289.861943 967.917096,304.77892 974.104972,321.79558 C980.292849,338.81224 983.38674,357.044102 983.38674,376.491713 C983.38674,397.707288 979.96136,417.154608 973.110497,434.834254 C966.259634,452.513901 956.204486,467.762367 942.944751,480.58011 C929.685017,493.397854 913.221093,503.453002 893.552486,510.745856 C873.88388,518.03871 851.01118,521.685083 824.933702,521.685083 C818.745825,521.685083 812.668538,521.464091 806.701657,521.022099 C800.734777,520.580108 794.65749,519.917131 788.469613,519.033149 L788.469613,658.922652 C788.027622,669.088449 785.044227,676.712682 779.519337,681.79558 C773.994448,686.878478 767.91716,689.41989 761.287293,689.41989 C755.099417,689.41989 749.353618,687.099471 744.049724,682.458564 C738.74583,677.817656 735.430946,670.635408 734.104972,660.911602 L734.104972,257.154696 Z M795.099448,332.071823 C794.215465,333.397797 793.110504,334.613254 791.78453,335.718232 C790.458557,336.82321 789.353596,337.817675 788.469613,338.701657 L788.469613,464.005525 C794.65749,465.331498 800.734777,466.43646 806.701657,467.320442 C812.668538,468.204424 818.745825,468.646409 824.933702,468.646409 C839.961401,468.646409 853.883914,466.657478 866.701657,462.679558 C879.519401,458.701638 890.67951,452.955839 900.18232,445.441989 C909.68513,437.928139 917.088371,428.646464 922.392265,417.596685 C927.696159,406.546906 930.348066,393.950347 930.348066,379.80663 C930.348066,369.198842 928.690624,358.480717 925.375691,347.651934 C922.060757,336.82315 917.419919,326.988994 911.453039,318.149171 C905.486158,309.309348 898.524902,302.127099 890.569061,296.60221 C882.61322,291.07732 873.773529,288.314917 864.049724,288.314917 C856.535874,288.314917 849.464122,289.640871 842.834254,292.292818 C836.204387,294.944765 830.016603,298.370145 824.270718,302.569061 C818.524833,306.767977 813.221019,311.408814 808.359116,316.491713 C803.497213,321.574611 799.077368,326.767929 795.099448,332.071823 L795.099448,332.071823 Z M1251.92265,479.254144 C1256.78455,485.44202 1259.21547,492.29278 1259.21547,499.80663 C1259.21547,507.32048 1256.78455,513.397767 1251.92265,518.038674 C1247.06075,522.679581 1241.09396,525 1234.0221,525 C1224.29829,525 1215.90059,520.469659 1208.82873,511.40884 C1201.75687,502.348021 1195.79008,492.071881 1190.92818,480.58011 C1179.43641,492.955863 1165.95588,503.452996 1150.48619,512.071823 C1135.0165,520.690651 1119.10505,525 1102.75138,525 C1090.81762,525 1079.32602,522.900573 1068.27624,518.701657 C1057.22646,514.502741 1046.95032,508.756943 1037.44751,501.464088 C1027.9447,494.171234 1019.547,485.663032 1012.25414,475.939227 C1004.96129,466.215421 999.546979,456.049777 996.01105,445.441989 C992.47512,433.950219 990.044206,421.243164 988.718232,407.320442 C987.392259,393.39772 986.729282,378.922727 986.729282,363.895028 C986.729282,345.77339 987.171266,328.094009 988.055249,310.856354 C988.939231,293.618698 989.381215,278.370232 989.381215,265.110497 C991.591171,256.270674 995.127048,249.640906 999.98895,245.220994 C1004.85085,240.801083 1010.37566,238.59116 1016.56354,238.59116 C1022.30942,238.59116 1027.72373,240.580091 1032.80663,244.558011 C1037.88953,248.535931 1041.5359,254.723715 1043.74586,263.121547 C1043.74586,283.895131 1043.41437,303.894931 1042.75138,323.121547 C1042.08839,342.348162 1041.75691,362.789947 1041.75691,384.447514 C1041.75691,409.199019 1047.06072,429.530307 1057.66851,445.441989 C1068.2763,461.353671 1082.64079,469.309392 1100.76243,469.309392 C1107.3923,469.309392 1114.02207,467.983439 1120.65193,465.331492 C1127.2818,462.679545 1133.46958,459.143669 1139.21547,454.723757 C1144.96135,450.303845 1150.26517,445.221023 1155.12707,439.475138 C1159.98897,433.729253 1164.40882,427.983454 1168.38674,422.237569 C1169.27072,421.353587 1170.37568,420.580114 1171.70166,419.917127 C1173.02763,419.25414 1174.13259,418.480667 1175.01657,417.596685 C1172.36463,395.497127 1171.03867,373.176908 1171.03867,350.635359 C1171.03867,337.817615 1171.14917,324.889568 1171.37017,311.850829 C1171.59116,298.81209 1172.69612,286.878507 1174.68508,276.049724 C1176.67404,265.22094 1179.98893,256.38125 1184.62983,249.530387 C1189.27074,242.679524 1195.79001,239.254144 1204.18785,239.254144 C1210.81771,239.254144 1216.7845,241.795555 1222.0884,246.878453 C1227.39229,251.961351 1230.0442,259.364592 1230.0442,269.088398 C1230.0442,279.254194 1229.27073,291.629761 1227.72376,306.21547 C1226.17679,320.801178 1225.40331,336.049644 1225.40331,351.961326 C1225.40331,364.337078 1225.8453,376.712645 1226.72928,389.088398 C1227.61326,401.46415 1229.04971,413.287236 1231.03867,424.558011 C1233.02763,435.828786 1235.67954,446.104926 1238.99448,455.38674 C1242.30941,464.668555 1246.61876,472.624276 1251.92265,479.254144 L1251.92265,479.254144 Z M1344.76796,493.176796 C1352.7238,498.922681 1357.36463,505.441952 1358.69061,512.734807 C1360.01658,520.027661 1359.02212,526.32594 1355.70718,531.629834 C1352.39225,536.933728 1347.30943,540.690597 1340.45856,542.900552 C1333.6077,545.110508 1325.76248,544.005547 1316.92265,539.585635 C1312.94473,536.933688 1308.96687,534.281781 1304.98895,531.629834 C1301.01103,528.977887 1296.81218,526.32598 1292.39227,523.674033 C1288.41434,520.138104 1285.76244,516.82322 1284.43646,513.729282 C1283.11049,510.635344 1282.00553,506.215498 1281.12155,500.469613 L1281.12155,132.513812 C1282.88951,124.11598 1286.31489,117.707204 1291.39779,113.287293 C1296.48069,108.867381 1301.7845,106.546962 1307.30939,106.325967 C1312.83428,106.104971 1318.24859,107.983406 1323.55249,111.961326 C1328.85638,115.939246 1332.83424,122.12703 1335.48619,130.524862 L1335.48619,487.209945 C1336.81216,488.093927 1338.24861,489.088392 1339.79558,490.19337 C1341.34255,491.298348 1342.99999,492.292813 1344.76796,493.176796 L1344.76796,493.176796 Z M1377.94475,476.60221 C1373.96683,468.646369 1372.64088,461.46412 1373.96685,455.055249 C1375.29282,448.646377 1378.05523,443.563555 1382.25414,439.80663 C1386.45306,436.049705 1391.86737,434.171271 1398.49724,434.171271 C1405.1271,434.171271 1411.97787,436.602186 1419.04972,441.464088 C1429.21552,454.281832 1441.2596,464.226484 1455.18232,471.298343 C1469.10504,478.370201 1484.02202,482.569054 1499.9337,483.895028 L1513.85635,479.917127 C1517.39228,477.26518 1519.8232,475.497242 1521.14917,474.61326 C1522.47514,473.729277 1523.46961,472.955804 1524.1326,472.292818 C1524.79558,471.629831 1525.67955,470.635366 1526.78453,469.309392 C1527.88951,467.983419 1529.76794,465.552504 1532.41989,462.016575 C1533.30387,460.24861 1533.96685,458.480672 1534.40884,456.712707 C1534.85083,454.944743 1535.51381,452.955812 1536.39779,450.745856 C1536.39779,448.535901 1536.50829,446.54697 1536.72928,444.779006 C1536.95028,443.011041 1537.06077,441.02211 1537.06077,438.812155 L1533.08287,426.878453 C1531.7569,425.110488 1530.32045,423.34255 1528.77348,421.574586 C1527.22651,419.806621 1525.79006,418.038683 1524.46409,416.270718 C1513.41431,409.19886 1502.3647,404.116038 1491.31492,401.022099 C1480.26514,397.928161 1469.54701,394.723773 1459.16022,391.40884 C1448.77343,388.093906 1438.60778,383.784557 1428.66298,378.480663 C1418.71818,373.176769 1409.32601,364.558071 1400.48619,352.624309 C1392.08836,342.016522 1387.55801,329.751451 1386.89503,315.828729 C1386.23204,301.906008 1388.44196,288.535976 1393.52486,275.718232 C1398.60776,262.900488 1406.1215,251.519387 1416.0663,241.574586 C1426.0111,231.629785 1437.3922,225.331505 1450.20994,222.679558 C1468.77357,218.259646 1487.66841,217.817662 1506.89503,221.353591 C1526.12164,224.88952 1544.13251,231.077304 1560.92818,239.917127 C1568.88402,245.663012 1573.52486,252.182284 1574.85083,259.475138 C1576.1768,266.767992 1575.18234,273.066272 1571.8674,278.370166 C1568.55247,283.67406 1563.46965,287.430928 1556.61878,289.640884 C1549.76792,291.85084 1541.9227,290.745878 1533.08287,286.325967 C1522.47509,280.580082 1511.31498,276.823213 1499.60221,275.055249 C1487.88944,273.287284 1476.06636,273.287284 1464.1326,275.055249 C1462.80662,275.939231 1461.37017,276.602208 1459.8232,277.044199 C1458.27624,277.48619 1456.83979,278.149167 1455.51381,279.033149 C1450.65191,284.337043 1447.11603,289.530361 1444.90608,294.61326 C1442.69612,299.696158 1441.81215,305.994438 1442.25414,313.508287 C1442.69613,315.276252 1443.8011,317.928159 1445.56906,321.464088 C1446.89503,323.232053 1448.22099,324.778999 1449.54696,326.104972 C1450.87293,327.430946 1452.19889,328.977892 1453.52486,330.745856 C1464.13265,336.491741 1475.73474,341.022083 1488.33149,344.337017 C1500.92824,347.65195 1513.19331,351.408819 1525.12707,355.607735 C1537.06083,359.806651 1548.11045,365.331457 1558.27624,372.18232 C1568.44204,379.033183 1576.39776,389.088331 1582.14365,402.348066 C1592.75143,427.541562 1594.40888,450.74575 1587.11602,471.961326 C1579.82317,493.176902 1565.12718,511.077275 1543.02762,525.662983 C1537.28174,529.198913 1530.87296,532.182308 1523.8011,534.61326 C1516.72925,537.044211 1510.09948,538.259669 1503.9116,538.259669 C1480.04408,538.259669 1456.6189,532.845358 1433.63536,522.016575 C1410.65182,511.187791 1392.08847,496.049821 1377.94475,476.60221 L1377.94475,476.60221 Z M1860.62431,496.491713 C1860.62431,496.933704 1860.40332,497.154696 1859.96133,497.154696 C1862.61327,503.342572 1863.27625,509.088371 1861.95028,514.392265 C1860.6243,519.696159 1858.08289,524.005508 1854.32597,527.320442 C1850.56904,530.635376 1845.70721,532.734802 1839.74033,533.618785 C1833.77345,534.502767 1827.25418,533.176813 1820.18232,529.640884 C1816.2044,525.662964 1812.44753,521.353614 1808.9116,516.712707 C1805.37567,512.0718 1802.28178,507.320466 1799.62983,502.458564 C1790.79001,509.972413 1781.28734,516.93367 1771.12155,523.342541 C1760.95575,529.751413 1750.79011,533.176793 1740.62431,533.618785 C1722.94466,534.502767 1705.48627,534.723759 1688.24862,534.281768 C1671.01096,533.839777 1654.65754,528.093978 1639.18785,517.044199 C1626.3701,507.762385 1616.53595,496.712771 1609.68508,483.895028 C1602.83422,471.077284 1598.41437,457.48626 1596.42541,443.121547 C1594.43645,428.756834 1594.54695,414.060849 1596.75691,399.033149 C1598.96686,384.00545 1602.72373,369.640952 1608.02762,355.939227 C1610.23758,349.75135 1613.11048,343.784559 1616.64641,338.038674 C1620.18234,332.292789 1623.71821,326.325998 1627.25414,320.138122 C1632.11605,311.298298 1637.64085,303.011088 1643.82873,295.276243 C1650.01661,287.541398 1657.08836,280.801134 1665.0442,275.055249 C1670.79008,271.077328 1676.42539,267.099467 1681.95028,263.121547 C1687.47517,259.143627 1693.11047,255.386758 1698.85635,251.850829 C1702.83427,249.198882 1708.91156,246.436478 1717.0884,243.563536 C1725.26523,240.690593 1734.10492,238.259678 1743.60773,236.270718 C1753.11054,234.281758 1762.61321,233.287293 1772.11602,233.287293 C1781.61883,233.287293 1789.68505,234.613246 1796.31492,237.265193 C1802.50279,236.381211 1808.58008,237.928157 1814.54696,241.906077 C1820.51384,245.883998 1825.04418,252.292773 1828.13812,261.132597 C1828.13812,291.187996 1827.91713,321.463936 1827.47514,351.961326 C1827.03315,382.458716 1829.02208,412.734656 1833.44199,442.790055 C1833.88398,446.767976 1835.54142,451.519309 1838.41436,457.044199 C1841.28731,462.569088 1844.3812,467.983399 1847.69613,473.287293 C1851.01107,478.591187 1853.99446,483.453017 1856.64641,487.872928 C1859.29836,492.29284 1860.62431,495.165739 1860.62431,496.491713 L1860.62431,496.491713 Z M1776.42541,450.745856 C1777.3094,450.303865 1777.97237,449.861881 1778.41436,449.41989 C1778.85636,448.977898 1779.51933,448.535914 1780.40331,448.093923 C1774.65743,421.574453 1771.89503,394.060916 1772.11602,365.552486 C1772.33702,337.044056 1772.66851,310.856473 1773.1105,286.98895 C1769.13258,286.98895 1764.71273,287.430935 1759.85083,288.314917 C1754.98893,289.198899 1750.23759,290.414357 1745.59669,291.961326 C1740.95578,293.508295 1736.75692,294.944745 1733,296.270718 C1729.24308,297.596692 1726.48067,298.701653 1724.71271,299.585635 C1711.45297,305.773512 1700.18237,313.839729 1690.90055,323.78453 C1681.61874,333.729331 1673.9945,344.778945 1668.02762,356.933702 C1662.06074,369.088459 1657.5304,381.90601 1654.43646,395.38674 C1651.34253,408.867471 1649.79558,422.458495 1649.79558,436.160221 C1650.67956,439.69615 1651.78452,443.232027 1653.1105,446.767956 C1654.43647,450.303885 1655.54143,453.839761 1656.42541,457.375691 C1658.63537,459.585646 1660.95579,462.016561 1663.38674,464.668508 C1665.81769,467.320455 1668.3591,469.75137 1671.01105,471.961326 C1674.98897,473.729291 1678.96683,475.276236 1682.94475,476.60221 C1686.92267,477.928183 1690.90053,479.254137 1694.87845,480.58011 C1702.3923,480.58011 1709.68505,480.801103 1716.75691,481.243094 C1723.82876,481.685085 1730.90052,480.801116 1737.97238,478.59116 C1744.60224,474.171249 1751.12151,469.751403 1757.53039,465.331492 C1763.93926,460.91158 1770.23754,456.04975 1776.42541,450.745856 L1776.42541,450.745856 Z M1877.8895,294.281768 C1871.25964,290.745839 1866.39781,286.546986 1863.30387,281.685083 C1860.20993,276.82318 1858.66298,271.96135 1858.66298,267.099448 C1858.66298,260.46958 1861.0939,254.613285 1865.9558,249.530387 C1870.8177,244.447488 1877.44747,241.906077 1885.8453,241.906077 C1892.03318,241.906077 1899.76791,244.116 1909.04972,248.535912 C1918.33154,252.955823 1925.62428,257.817653 1930.92818,263.121547 C1944.6299,251.629777 1958.77341,242.127109 1973.35912,234.61326 C1987.94482,227.09941 2002.75131,223.342541 2017.77901,223.342541 C2022.19892,223.342541 2028.60769,224.447503 2037.00552,226.657459 C2045.40336,228.867414 2053.69057,232.182298 2061.8674,236.60221 C2070.04424,241.022122 2077.22649,246.76792 2083.41436,253.839779 C2089.60224,260.911638 2092.69613,269.088351 2092.69613,278.370166 C2092.69613,285.884015 2090.26522,291.961303 2085.40331,296.60221 C2080.54141,301.243117 2074.57462,303.563536 2067.50276,303.563536 C2062.64086,303.563536 2058.33151,302.127086 2054.57459,299.254144 C2050.81766,296.381201 2047.06079,293.287309 2043.30387,289.972376 C2039.54694,286.657442 2035.56908,283.674046 2031.37017,281.022099 C2027.17125,278.370152 2022.41992,277.044199 2017.11602,277.044199 C2010.92815,277.044199 2004.18788,278.922633 1996.89503,282.679558 C1989.60217,286.436483 1982.30943,290.966824 1975.01657,296.270718 C1967.72372,301.574612 1960.76246,307.320411 1954.1326,313.508287 C1947.50273,319.696164 1941.75693,325.22097 1936.89503,330.082873 L1936.89503,506.436464 C1936.45304,516.602261 1933.46964,524.226494 1927.94475,529.309392 C1922.41986,534.392291 1916.34257,536.933702 1909.71271,536.933702 C1903.52483,536.933702 1897.77903,534.613283 1892.47514,529.972376 C1887.17124,525.331469 1883.85636,518.14922 1882.53039,508.425414 L1882.53039,327.430939 C1882.53039,326.546957 1882.41989,325.552492 1882.1989,324.447514 C1881.9779,323.342536 1881.8674,322.348071 1881.8674,321.464088 C1881.8674,320.580106 1881.9779,319.585641 1882.1989,318.480663 C1882.41989,317.375685 1882.53039,316.38122 1882.53039,315.497238 L1882.53039,296.270718 C1880.76242,295.386736 1879.21548,294.723759 1877.8895,294.281768 L1877.8895,294.281768 Z" id="pulsar" fill="#416793" sketch:type="MSShapeGroup"></path>
            <g id="pulsar" transform="translate(409.807621, 409.807621) rotate(-30.000000) translate(-409.807621, -409.807621) translate(109.807621, 109.807621)" sketch:type="MSShapeGroup">
                <path d="M446.559338,285.090778 C455.202601,278.942242 460,272.146198 460,265 C460,237.385761 388.365564,215 300,215 C211.634436,215 140,237.385761 140,265 C140,272.146198 144.797399,278.942242 153.440662,285.090778 C179.915331,268.457811 235.595595,257 300,257 C364.404405,257 420.084669,268.457811 446.559338,285.090778 Z" id="core-back" fill="#6A6A6A"></path>
                <g id="ring-+-flame" transform="translate(-0.000000, 0.000000)" fill="#F8E71C">
                    <g id="ring">
                        <path d="M300,600 C465.685433,600 600,465.685433 600,300 C600,134.314567 465.685433,0 300,0 C134.314567,0 0,134.314567 0,300 C0,465.685433 134.314567,600 300,600 Z M300,590 C460.162585,590 590,460.162585 590,300 C590,139.837415 460.162585,10 300,10 C139.837415,10 10,139.837415 10,300 C10,460.162585 139.837415,590 300,590 Z" id="outer-ring"></path>
                        <path d="M300,595 C462.924009,595 595,462.924009 595,300 C595,137.075991 462.924009,5 300,5 C137.075991,5 5,137.075991 5,300 C5,462.924009 137.075991,595 300,595 Z M300,585.166667 C457.493209,585.166667 585.166667,457.493209 585.166667,300 C585.166667,142.506791 457.493209,14.8333333 300,14.8333333 C142.506791,14.8333333 14.8333333,142.506791 14.8333333,300 C14.8333333,457.493209 142.506791,585.166667 300,585.166667 Z" id="inner-ring" filter="url(#filter-1)"></path>
                    </g>
                    <path d="M200,300 C200,274 241,259.999999 260,220 C278.999999,179.999999 283.999999,157.050653 284,121 C284,49 284,18.9999895 224,19 C199.980396,19.0000106 300,8 300,8 L300,300 C300,300 200,300.000001 200,300 C200,326 241,340.000001 260,380 C278.999999,420.000001 283.999999,442.949347 284,479 C284,551 284,581.00001 224,581 C199.980396,580.999989 300,592 300,592 L300,300 C300,300 200,299.999999 200,300 Z M400,300 C400,274 359,259.999999 340,220 C321.000001,179.999999 316.000001,157.050653 316,121 C316,49 316,18.9999895 376,19 C400.019604,19.0000106 300,8 300,8 L300,300 C300,300 400,300.000001 400,300 C400,326 359,340.000001 340,380 C321.000001,420.000001 316.000001,442.949347 316,479 C316,551 316,581.00001 376,581 C400.019604,580.999989 300,592 300,592 L300,300 C300,300 400,299.999999 400,300 Z" id="flame" filter="url(#filter-2)"></path>
                </g>
                <path d="M373.218494,220.530712 C447.456559,232.218583 500,261.154855 500,295 C500,339.182782 410.456955,375 300,375 C189.543045,375 100,339.182782 100,295 C100,261.154855 152.543441,232.218583 226.781506,220.530712 C175.242471,228.834456 140,245.631083 140,265 C140,292.614239 211.634436,315 300,315 C388.365564,315 460,292.614239 460,265 C460,245.631083 424.757529,228.834456 373.218488,220.530711 Z" id="core" fill="#406793"></path>
            </g>
        </g>
    </g>
</svg>